General
Complete name                            : Total Recall [2012] ExtCut 720p BRRip H264 AC3 - CODY.mp4
Format                                   : MPEG-4
Format profile                           : Base Media
Codec ID                                 : isom
File size                                : 1.91 GiB
Duration                                 : 2h 10mn
Overall bit rate mode                    : Variable
Overall bit rate                         : 2 094 Kbps
Encoded date                             : UTC 2012-11-14 15:50:48

Video
ID                                       : 1
Format                                   : AVC
Format/Info                              : Advanced Video Codec
Format profile                           : High@L4.1
Format settings, CABAC                   : Yes
Format settings, ReFrames                : 5 frames
Codec ID                                 : avc1
Codec ID/Info                            : Advanced Video Coding
Duration                                 : 2h 10mn
Bit rate mode                            : Variable
Bit rate                                 : 1 645 Kbps
Maximum bit rate                         : 20.0 Mbps
Width                                    : 1 280 pixels
Height                                   : 536 pixels
Display aspect ratio                     : 2.40:1
Frame rate mode                          : Constant
Frame rate                               : 23.976 fps
Color space                              : YUV
Chroma subsampling                       : 4:2:0
Bit depth                                : 8 bits
Scan type                                : Progressive
Bits/(Pixel*Frame)                       : 0.100
Stream size                              : 1.50 GiB (78%)
Writing library                          : x264 core 125 r2208 d9d2288
Encoding settings                        : rc=2pass
Color primaries                          : Generic film

Audio
ID                                       : 2
Format                                   : AC-3
Format/Info                              : Audio Coding 3
Mode extension                           : CM (complete main)
Codec ID                                 : ac-3
Duration                                 : 2h 10mn
Bit rate mode                            : Constant
Bit rate                                 : 448 Kbps
Channel(s)                               : 6 channels
Channel positions                        : Front: L C R, Side: L R, LFE
Sampling rate                            : 48.0 KHz
Bit depth                                : 16 bits
Compression mode                         : Lossy
Stream size                              : 417 MiB (21%)
Audio language                           : English

IMDB link:                                 http://www.imdb.com/title/tt1386703/

Subtitles included                       : Romanian

Please seed at least 1,5:1 . This way this torrent has a chance to survive !

Thanks. Enjoy !				